<svg version="1.0" xmlns="http://www.w3.org/2000/svg"
 width="30px" height="30px" viewBox="0 0 512.000000 512.000000"
 preserveAspectRatio="xMidYMid meet">
<g transform="translate(0.000000,512.000000) scale(0.100000,-0.100000)"
fill="#ffffff" stroke="none">
<path d="M2763 4805 c-36 -15 -35 -11 -69 -180 -64 -320 -175 -590 -301 -734
-125 -143 -421 -274 -783 -346 -74 -15 -142 -31 -151 -36 -29 -15 -43 -65 -29
-99 7 -17 20 -35 29 -39 9 -5 77 -21 151 -36 326 -65 593 -174 739 -302 142
-124 273 -420 345 -778 34 -169 33 -165 72 -181 29 -12 39 -12 68 0 39 16 38
12 72 181 65 322 174 589 301 734 124 142 418 272 778 346 171 34 165 32 181
71 12 29 12 39 0 68 -16 39 -15 39 -156 66 -375 74 -681 208 -805 352 -127
148 -235 413 -299 733 -34 169 -33 165 -72 181 -39 16 -31 17 -71 -1z m70
-573 c43 -131 148 -336 216 -424 33 -42 91 -99 128 -127 85 -65 292 -169 411
-207 51 -16 92 -31 92 -35 0 -3 -33 -16 -72 -28 -268 -86 -474 -220 -594 -386
-50 -69 -143 -262 -179 -373 -16 -50 -32 -92 -35 -92 -3 0 -18 40 -33 88 -43
129 -148 336 -212 417 -31 39 -88 96 -128 128 -84 68 -280 168 -414 212 -51
17 -93 32 -93 35 0 3 40 18 88 34 265 86 472 224 582 386 56 83 138 255 175
367 17 51 32 92 35 93 3 0 18 -40 33 -88z"/>
<path d="M1865 4375 c-18 -17 -25 -35 -25 -61 0 -34 9 -47 98 -136 89 -89 102
-98 136 -98 51 0 86 35 86 86 0 34 -9 47 -98 136 -89 89 -102 98 -136 98 -26
0 -44 -7 -61 -25z"/>
<path d="M3538 4302 c-93 -93 -98 -100 -98 -140 0 -29 6 -48 20 -62 14 -14 33
-20 62 -20 40 0 47 5 140 98 89 89 98 102 98 136 0 51 -35 86 -86 86 -34 0
-47 -9 -136 -98z"/>
<path d="M1684 2932 c-50 -24 -97 -79 -114 -135 -7 -23 -16 -98 -19 -167 -8
-154 -10 -158 -171 -325 -214 -224 -302 -395 -330 -644 -6 -52 -16 -106 -23
-120 -7 -14 -61 -64 -122 -112 -173 -136 -165 -126 -165 -207 0 -277 224 -609
509 -752 119 -60 301 -89 358 -57 12 7 79 72 149 145 l128 134 240 119 240
119 440 0 c488 0 775 -12 910 -36 120 -22 208 -15 294 26 124 58 185 157 186
300 0 80 -27 161 -65 196 -18 16 -16 18 39 44 77 36 127 82 160 144 23 44 27
63 27 136 0 68 -5 93 -22 125 -68 128 -201 177 -483 177 -371 1 -814 -79
-1272 -229 -193 -63 -208 -66 -304 -67 -95 -1 -102 0 -137 27 -74 56 -85 122
-44 252 48 152 60 230 61 395 0 117 -4 171 -17 220 -39 142 -99 230 -191 278
-70 35 -201 42 -262 14z m192 -173 c124 -76 148 -388 53 -684 -28 -88 -31
-109 -27 -185 5 -104 32 -163 105 -231 68 -64 139 -89 251 -89 109 0 174 14
387 83 218 71 285 89 480 131 508 111 966 119 1045 19 40 -51 17 -134 -46
-174 -54 -33 -114 -49 -319 -85 -444 -77 -715 -151 -1165 -316 -164 -60 -397
-163 -625 -276 l-230 -115 -122 -124 c-68 -68 -123 -129 -123 -134 0 -14 -50
-11 -111 7 -79 24 -176 75 -243 131 -105 85 -221 261 -260 392 -27 92 -24 101
51 156 37 27 97 79 134 115 76 73 90 107 109 261 13 108 33 175 77 264 53 105
86 149 203 270 185 192 211 243 220 430 4 72 12 140 19 153 16 30 89 31 137 1z
m2072 -1416 c63 -39 89 -98 72 -163 -15 -56 -64 -105 -121 -120 -36 -11 -66
-10 -164 3 -184 25 -253 29 -609 36 l-331 6 200 67 c311 103 768 211 863 204
25 -2 62 -16 90 -33z"/>
<path d="M3460 2780 c-14 -14 -20 -33 -20 -62 0 -40 5 -47 98 -140 89 -89 102
-98 136 -98 51 0 86 35 86 86 0 34 -9 47 -98 136 -93 93 -100 98 -140 98 -29
0 -48 -6 -62 -20z"/>
</g>
</svg>